<svg width="374.219" height="75.978" viewBox="0 0 374.219 75.978" xmlns="http://www.w3.org/2000/svg"><g id="svgGroup" stroke-linecap="round" fill-rule="evenodd" font-size="9pt" stroke="#000" stroke-width="mm" fill="#000" style="stroke:#000;stroke-width:mm;fill:#000"><path d="M 206.543 3.906 L 214.502 3.906 L 240.723 66.65 L 267.041 3.906 L 275.049 3.906 L 275.049 75 L 269.043 75 L 269.043 44.043 L 269.531 12.305 L 243.066 75 L 238.428 75 L 212.061 12.549 L 212.549 43.848 L 212.549 75 L 206.543 75 L 206.543 3.906 Z M 50.537 24.17 L 44.482 24.17 A 17.229 17.229 0 0 0 43.66 18.73 A 14.217 14.217 0 0 0 39.502 12.476 A 16.896 16.896 0 0 0 32.166 8.732 Q 29.406 8.057 26.123 8.057 A 29.73 29.73 0 0 0 20.909 8.486 Q 16.307 9.307 13.135 11.694 Q 8.312 15.324 8.301 21.165 A 14.126 14.126 0 0 0 8.301 21.191 A 10.615 10.615 0 0 0 11.748 29.258 A 13.486 13.486 0 0 0 12.646 30.029 A 21.477 21.477 0 0 0 15.873 32.087 Q 19.405 33.958 24.761 35.547 A 85.125 85.125 0 0 0 26.563 36.06 A 113.005 113.005 0 0 1 31.964 37.67 Q 37.635 39.527 41.064 41.479 Q 45.996 44.287 48.486 48.193 A 15.789 15.789 0 0 1 50.78 54.54 A 20.453 20.453 0 0 1 50.977 57.422 Q 50.977 65.541 44.701 70.558 A 20.749 20.749 0 0 1 44.263 70.898 Q 37.549 75.977 26.563 75.977 A 36.673 36.673 0 0 1 17.439 74.874 A 32.039 32.039 0 0 1 12.769 73.291 A 24.627 24.627 0 0 1 7.704 70.416 A 19.001 19.001 0 0 1 3.247 65.771 Q 0 60.938 0 54.688 L 6.006 54.688 A 16.153 16.153 0 0 0 6.924 60.249 A 13.888 13.888 0 0 0 11.621 66.553 Q 16.661 70.453 24.689 70.853 A 37.665 37.665 0 0 0 26.563 70.898 A 30.614 30.614 0 0 0 32.05 70.436 Q 36.651 69.597 39.893 67.236 Q 44.922 63.574 44.922 57.52 A 13.544 13.544 0 0 0 44.289 53.28 A 10.983 10.983 0 0 0 40.771 48.169 A 18.413 18.413 0 0 0 37.892 46.26 Q 34.714 44.512 29.658 42.858 A 100.85 100.85 0 0 0 25.586 41.626 A 98.71 98.71 0 0 1 19.85 39.837 Q 13.123 37.495 9.473 34.863 A 18.436 18.436 0 0 1 4.964 30.378 A 15.61 15.61 0 0 1 2.246 21.289 A 15.659 15.659 0 0 1 7.386 9.356 A 20.331 20.331 0 0 1 8.96 8.032 Q 15.674 2.93 26.123 2.93 A 31.489 31.489 0 0 1 33.225 3.701 A 25.889 25.889 0 0 1 38.794 5.664 A 21.81 21.81 0 0 1 44.737 9.858 A 19.816 19.816 0 0 1 47.461 13.281 A 20.008 20.008 0 0 1 50.537 24.17 Z M 128.76 75 L 128.662 68.311 Q 123.389 75.977 111.816 75.977 A 23.162 23.162 0 0 1 106.723 75.451 Q 101.931 74.371 98.975 71.069 Q 95.519 67.21 94.72 60.438 A 36.456 36.456 0 0 1 94.482 56.543 L 94.482 22.168 L 100.293 22.168 L 100.293 55.811 A 27.385 27.385 0 0 0 100.797 61.317 Q 102.534 69.74 110.261 70.758 A 17.143 17.143 0 0 0 112.5 70.898 Q 125.195 70.898 128.564 60.4 L 128.564 22.168 L 134.424 22.168 L 134.424 75 L 128.76 75 Z M 331.299 75 L 325.049 75 Q 324.17 72.51 323.926 67.627 A 20.376 20.376 0 0 1 316.089 73.804 A 24.002 24.002 0 0 1 306.006 75.977 A 22.255 22.255 0 0 1 300.6 75.354 A 15.924 15.924 0 0 1 293.677 71.729 A 13.741 13.741 0 0 1 288.983 61.789 A 17.342 17.342 0 0 1 288.965 60.986 Q 288.965 53.7 294.692 49.288 A 18.748 18.748 0 0 1 295.386 48.779 Q 300.376 45.288 308.419 44.51 A 50.567 50.567 0 0 1 313.281 44.287 L 323.877 44.287 L 323.877 38.281 A 14.824 14.824 0 0 0 323.426 34.522 A 10.512 10.512 0 0 0 320.386 29.37 A 11.177 11.177 0 0 0 316.115 26.941 Q 314.4 26.391 312.322 26.211 A 24.499 24.499 0 0 0 310.205 26.123 A 19.596 19.596 0 0 0 305.592 26.639 A 14.254 14.254 0 0 0 300.098 29.248 A 11.853 11.853 0 0 0 297.777 31.602 A 8.577 8.577 0 0 0 296.094 36.768 L 290.234 36.719 Q 290.234 30.42 296.094 25.806 A 21.35 21.35 0 0 1 306.517 21.462 A 28.392 28.392 0 0 1 310.498 21.191 A 28.594 28.594 0 0 1 316.133 21.714 Q 319.541 22.399 322.189 23.984 A 15.913 15.913 0 0 1 324.438 25.61 A 14.823 14.823 0 0 1 329.336 34.368 A 21.53 21.53 0 0 1 329.688 37.939 L 329.688 62.939 A 58.552 58.552 0 0 0 329.815 66.946 Q 330.08 70.799 330.898 73.329 A 13.19 13.19 0 0 0 331.299 74.414 L 331.299 75 Z M 147.266 48.779 L 147.266 48.096 Q 147.266 38.693 150.473 32.213 A 23.536 23.536 0 0 1 152.759 28.491 A 17.415 17.415 0 0 1 165.381 21.305 A 22.573 22.573 0 0 1 167.676 21.191 Q 178.369 21.191 183.984 29.639 L 183.984 0 L 189.795 0 L 189.795 75 L 184.326 75 L 184.082 67.969 Q 178.467 75.977 167.578 75.977 A 18.285 18.285 0 0 1 159.563 74.252 Q 155.978 72.532 153.22 69.094 A 23.019 23.019 0 0 1 152.856 68.628 Q 148.052 62.313 147.376 52.193 A 51.26 51.26 0 0 1 147.266 48.779 Z M 65.771 8.643 L 71.631 8.643 L 71.631 22.168 L 82.568 22.168 L 82.568 26.953 L 71.631 26.953 L 71.631 62.158 A 19.536 19.536 0 0 0 71.756 64.452 Q 72.054 66.964 73.059 68.475 A 5.608 5.608 0 0 0 73.218 68.701 A 4.917 4.917 0 0 0 75.675 70.438 Q 76.892 70.85 78.516 70.85 Q 79.98 70.85 83.252 70.361 L 83.496 75.146 A 11.594 11.594 0 0 1 81.722 75.619 Q 79.871 75.971 77.327 75.976 A 37.48 37.48 0 0 1 77.246 75.977 A 16.275 16.275 0 0 1 73.968 75.669 Q 72.06 75.276 70.622 74.382 A 8.097 8.097 0 0 1 68.506 72.485 A 11.281 11.281 0 0 1 66.71 69.029 Q 66.182 67.429 65.951 65.47 A 27.908 27.908 0 0 1 65.771 62.207 L 65.771 26.953 L 56.055 26.953 L 56.055 22.168 L 65.771 22.168 L 65.771 8.643 Z M 374.219 0 L 374.219 75 L 368.359 75 L 368.359 0 L 374.219 0 Z M 183.984 61.377 L 183.984 36.572 Q 179.701 26.854 169.943 26.303 A 21.156 21.156 0 0 0 168.75 26.27 Q 161.446 26.27 157.353 31.947 A 16.638 16.638 0 0 0 157.275 32.056 A 19.103 19.103 0 0 0 154.716 37.352 Q 153.903 39.911 153.518 43.044 A 50.026 50.026 0 0 0 153.174 49.121 Q 153.174 56.257 155.194 61.264 A 19.278 19.278 0 0 0 157.227 65.063 A 12.854 12.854 0 0 0 166.429 70.756 A 16.852 16.852 0 0 0 168.652 70.898 A 18.941 18.941 0 0 0 175.061 69.873 Q 180.199 68.037 183.178 62.909 A 21.333 21.333 0 0 0 183.984 61.377 Z M 351.807 22.168 L 351.807 75 L 345.947 75 L 345.947 22.168 L 351.807 22.168 Z M 323.877 60.4 L 323.877 48.779 L 313.428 48.779 Q 304.688 48.877 299.756 51.978 A 11.645 11.645 0 0 0 296.898 54.444 A 9.27 9.27 0 0 0 294.824 60.498 A 9.775 9.775 0 0 0 295.754 64.792 A 9.796 9.796 0 0 0 298.12 67.871 A 11.352 11.352 0 0 0 303.587 70.515 A 16.068 16.068 0 0 0 306.689 70.801 A 20.706 20.706 0 0 0 313.368 69.749 A 18.676 18.676 0 0 0 317.163 67.969 Q 321.777 65.137 323.877 60.4 Z M 345.199 5.331 A 4.244 4.244 0 0 0 344.922 6.885 A 5.009 5.009 0 0 0 344.925 7.052 A 3.837 3.837 0 0 0 345.996 9.668 A 3.498 3.498 0 0 0 347.693 10.646 A 4.957 4.957 0 0 0 348.926 10.791 A 5.251 5.251 0 0 0 349.858 10.712 A 3.658 3.658 0 0 0 351.88 9.668 A 3.759 3.759 0 0 0 352.712 8.389 A 4.13 4.13 0 0 0 352.979 6.885 A 3.907 3.907 0 0 0 351.88 4.077 A 3.57 3.57 0 0 0 350.211 3.091 A 4.855 4.855 0 0 0 348.926 2.93 A 5.137 5.137 0 0 0 348.021 3.006 A 3.547 3.547 0 0 0 345.996 4.077 A 3.891 3.891 0 0 0 345.199 5.331 Z" vector-effect="non-scaling-stroke"/></g></svg>